<?xml version="1.0" encoding="utf-8"?>
<!-- Generator: Adobe Illustrator 16.0.0, SVG Export Plug-In . SVG Version: 6.00 Build 0)  -->
<!DOCTYPE svg PUBLIC "-//W3C//DTD SVG 1.1//EN" "http://www.w3.org/Graphics/SVG/1.1/DTD/svg11.dtd">
<svg version="1.1" id="Layer_1" xmlns="http://www.w3.org/2000/svg" xmlns:xlink="http://www.w3.org/1999/xlink" x="0px" y="0px"
	 width="29.8px" height="29.8px" viewBox="-0.4 -0.4 29.8 29.8" enable-background="new -0.4 -0.4 29.8 29.8" xml:space="preserve">
<path fill="#DDDDDD" d="M14.5,29.4c-0.772,0-1.4-0.629-1.4-1.4V15.9H1c-0.772,0-1.4-0.629-1.4-1.4c0-0.772,0.628-1.4,1.4-1.4h12.1V1
	c0-0.772,0.628-1.4,1.4-1.4c0.771,0,1.4,0.628,1.4,1.4v12.1H28c0.771,0,1.4,0.628,1.4,1.4c0,0.771-0.629,1.4-1.4,1.4H15.9V28
	C15.9,28.771,15.271,29.4,14.5,29.4z"/>
</svg>
